<svg width="206" height="152" viewBox="0 0 206 152" fill="none" xmlns="http://www.w3.org/2000/svg">
<g id="Group 6">
<g id="Vector 49">
<path fill-rule="evenodd" clip-rule="evenodd" d="M16.7143 20.2189C16.6077 17.925 18.4321 16 20.7284 16V16C18.4343 16 16.6078 17.9272 16.7143 20.2189V20.2189ZM39.5 16C43.9183 16 47.5 19.5817 47.5 24V24C47.5 19.5817 43.9183 16 39.5 16V16Z" fill="#B285CA"/>
<path d="M63.5 115.5C59 113.5 57.5 112.5 53.5 106H31.1398C28.9628 106 27.8005 108.153 29.6169 109.353C37.2516 114.397 55.1016 115.36 63.5 115.5Z" fill="#E7E5E8"/>
<path d="M51 101C47.8 97.4 46.3333 92.5 46 90.5H21.1398C18.9628 90.5 17.7528 92.6747 19.505 93.9665C26.6055 99.2012 42.6252 100.86 51 101Z" fill="#E7E5E8"/>
<path fill-rule="evenodd" clip-rule="evenodd" d="M94.5001 129.713C87.8642 128.696 80.1286 133.576 81.0001 142C81.0001 149.088 88.2353 152.64 94.5001 151.833C102.1 144.899 97.6667 134.197 94.5001 129.713Z" fill="#B285CA"/>
<path d="M103.5 142C103.5 134.248 99.2861 130.447 94.5001 129.713C97.6667 134.197 102.1 144.899 94.5001 151.833C99.2829 151.217 103.5 148.061 103.5 142Z" fill="#AD7DC7"/>
<path fill-rule="evenodd" clip-rule="evenodd" d="M166 129.713C159.364 128.696 151.629 133.576 152.5 142C152.5 149.088 159.735 152.64 166 151.833C174.077 143.299 169.366 133.531 166 129.713Z" fill="#B285CA"/>
<path d="M175 142C175 134.248 170.786 130.447 166 129.713C169.366 133.531 174.077 143.299 166 151.833C170.783 151.217 175 148.061 175 142Z" fill="#AD7DC7"/>
<path d="M133.5 49C136.834 51.4501 141 56.5 142 67C142.283 69.973 143.714 70.3676 145 69.2505C145 47.8509 129.667 43.0705 122 43.3552C125.525 44.1669 129.391 45.9798 133.5 49Z" fill="#AD7DC7"/>
<path d="M178.5 43.9039C192.799 52.7348 195.991 87.625 155.903 111.5C205.5 89 196 50 178.5 43.9039Z" fill="#AD7DC7"/>
<path fill-rule="evenodd" clip-rule="evenodd" d="M85 123.5C58.6 117.1 49 82.1667 47.5 65.5V24V24C47.5 19.5817 43.9183 16 39.5 16V16H20.7284V16C18.4343 16 16.6078 17.9272 16.7143 20.2189V20.2189C16.7414 20.7997 16.7681 21.396 16.7943 22.0039C17.0849 28.7462 14.964 31.9986 12 31.4825C0.4 12.2685 5.7027 2.48832 9.80405 0L46.5 0C68.9543 0 68.7406 9.0005 67.9063 44.1493C67.7188 52.0477 67.5 61.2664 67.5 72C67.5 105 117 130.503 146.5 116.5C147.272 116.133 147.832 115.882 148.316 115.665C149.945 114.934 150.727 114.583 155.903 111.5C205.5 89 196 50 178.5 43.9039C169.555 38.3797 156.263 43.0532 146.5 67C146.1 67.9807 145.564 68.7609 145 69.2505C145 47.8509 129.667 43.0705 122 43.3552C97.0484 37.6089 89.1889 82.0326 133 103.5C141.5 107.665 126 110.644 118.5 107C47.5 72.5 102 -4 144 37C174.8 9 199.725 33 203.5 49C211.9 84.6 185.333 113.5 171 123.5C155 118.7 146.333 129.5 144 135.5H110.5C104.9 120.3 91.1667 121.167 85 123.5Z" fill="#B285CA"/>
<path d="M3.10439 21.3621L5.18748 24.9602C7.51659 28.9832 9.95831 31.1269 12 31.4825C0.4 12.2685 5.7027 2.48832 9.80405 0C4.38943 0 0 4.38942 0 9.80405C0 13.8628 1.07084 17.8496 3.10439 21.3621Z" fill="#AD7DC7"/>
</g>
<path id="Star 2" d="M93.0655 137.33C92.8272 136.597 91.7896 136.597 91.5514 137.33L90.9978 139.034C90.8913 139.362 90.5856 139.584 90.2408 139.584H88.4495C87.6784 139.584 87.3578 140.57 87.9816 141.024L89.4308 142.076C89.7098 142.279 89.8265 142.638 89.72 142.966L89.1664 144.67C88.9281 145.403 89.7675 146.013 90.3914 145.56L91.8405 144.507C92.1195 144.304 92.4973 144.304 92.7763 144.507L94.2255 145.56C94.8493 146.013 95.6887 145.403 95.4504 144.67L94.8969 142.966C94.7903 142.638 94.907 142.279 95.186 142.076L96.6352 141.024C97.259 140.57 96.9384 139.584 96.1673 139.584H94.3761C94.0312 139.584 93.7256 139.362 93.619 139.034L93.0655 137.33Z" fill="#E7E5E8"/>
<path id="Star 3" d="M165.065 137.33C164.827 136.597 163.79 136.597 163.551 137.33L162.998 139.034C162.891 139.362 162.586 139.584 162.241 139.584H160.45C159.678 139.584 159.358 140.57 159.982 141.024L161.431 142.076C161.71 142.279 161.827 142.638 161.72 142.966L161.166 144.67C160.928 145.403 161.768 146.013 162.391 145.56L163.841 144.507C164.12 144.304 164.497 144.304 164.776 144.507L166.225 145.56C166.849 146.013 167.689 145.403 167.45 144.67L166.897 142.966C166.79 142.638 166.907 142.279 167.186 142.076L168.635 141.024C169.259 140.57 168.938 139.584 168.167 139.584H166.376C166.031 139.584 165.726 139.362 165.619 139.034L165.065 137.33Z" fill="#E7E5E8"/>
</g>
</svg>
